<svg id="apple" xmlns="http://www.w3.org/2000/svg" width="104.919" height="34.32" viewBox="0 0 104.919 34.32">
  <defs>
    <style>
      .cls-1 {
        fill: #fff;
      }
    </style>
  </defs>
  <path id="path6" d="M104.919,29.682a4.638,4.638,0,0,1-4.637,4.638H4.638A4.638,4.638,0,0,1,0,29.682V4.638A4.639,4.639,0,0,1,4.638,0h95.644a4.638,4.638,0,0,1,4.637,4.638V29.682Z"/>
  <g id="g3447" transform="translate(8.015 4.888)">
    <g id="g3449" transform="translate(0 0)">
      <path id="path3451" class="cls-1" d="M74.506,63.311a5.419,5.419,0,0,1,2.581-4.547A5.551,5.551,0,0,0,72.716,56.4c-1.839-.194-3.623,1.1-4.559,1.1-.955,0-2.4-1.082-3.953-1.05a5.82,5.82,0,0,0-4.9,2.988C57.187,63.106,58.767,68.5,60.8,71.46c1.015,1.452,2.2,3.073,3.754,3.016,1.519-.063,2.087-.969,3.92-.969,1.816,0,2.349.969,3.933.932,1.63-.026,2.657-1.458,3.637-2.923A12,12,0,0,0,77.7,68.129,5.239,5.239,0,0,1,74.506,63.311Z" transform="translate(-58.299 -50.627)"/>
      <path id="path3453" class="cls-1" d="M108.88,32.157a5.334,5.334,0,0,0,1.221-3.823,5.434,5.434,0,0,0-3.513,1.817,5.076,5.076,0,0,0-1.253,3.682A4.488,4.488,0,0,0,108.88,32.157Z" transform="translate(-95.665 -28.334)"/>
    </g>
  </g>
  <g id="g3455" transform="translate(31.307 12.53)">
    <path id="path3457" class="cls-1" d="M171.141,80.092h-1.783l-.977-3.069h-3.395l-.93,3.069H162.32l3.363-10.448h2.077Zm-3.054-4.357-.883-2.728q-.14-.418-.527-1.968h-.031q-.154.667-.5,1.968l-.868,2.728Z" transform="translate(-162.32 -69.49)"/>
    <path id="path3459" class="cls-1" d="M219.374,86.926a4.281,4.281,0,0,1-1.039,3.038,3.037,3.037,0,0,1-2.31.992,2.31,2.31,0,0,1-2.139-1.069h-.031v3.969H212.18V85.731q0-1.208-.062-2.48h1.472l.093,1.194h.031a2.978,2.978,0,0,1,4.766-.3A4.151,4.151,0,0,1,219.374,86.926Zm-1.705.061a3.1,3.1,0,0,0-.5-1.814,1.714,1.714,0,0,0-1.457-.744,1.741,1.741,0,0,0-1.123.411,1.9,1.9,0,0,0-.659,1.078,2.191,2.191,0,0,0-.078.51v1.256a2.013,2.013,0,0,0,.5,1.388,1.671,1.671,0,0,0,1.31.566,1.714,1.714,0,0,0,1.472-.729A3.207,3.207,0,0,0,217.668,86.987Z" transform="translate(-201.903 -80.184)"/>
    <path id="path3461" class="cls-1" d="M261.62,86.926a4.278,4.278,0,0,1-1.039,3.038,3.034,3.034,0,0,1-2.309.992,2.308,2.308,0,0,1-2.139-1.069H256.1v3.969h-1.674V85.731q0-1.208-.062-2.48h1.472l.093,1.194h.031a2.979,2.979,0,0,1,4.767-.3A4.162,4.162,0,0,1,261.62,86.926Zm-1.705.061a3.1,3.1,0,0,0-.5-1.814,1.711,1.711,0,0,0-1.456-.744,1.743,1.743,0,0,0-1.124.411,1.9,1.9,0,0,0-.658,1.078,2.235,2.235,0,0,0-.078.51v1.256a2.019,2.019,0,0,0,.5,1.388,1.674,1.674,0,0,0,1.311.566,1.714,1.714,0,0,0,1.472-.729A3.207,3.207,0,0,0,259.914,86.987Z" transform="translate(-235.484 -80.184)"/>
    <path id="path3463" class="cls-1" d="M311.843,76.568a2.785,2.785,0,0,1-.928,2.17,4.113,4.113,0,0,1-2.846.915A4.982,4.982,0,0,1,305.361,79l.388-1.4a4.588,4.588,0,0,0,2.42.667,2.288,2.288,0,0,0,1.474-.427,1.4,1.4,0,0,0,.526-1.142,1.455,1.455,0,0,0-.434-1.071,4.036,4.036,0,0,0-1.441-.808q-2.744-1.023-2.743-3a2.651,2.651,0,0,1,.962-2.111,3.792,3.792,0,0,1,2.558-.823,5.071,5.071,0,0,1,2.371.5l-.418,1.365a4.114,4.114,0,0,0-2-.48,2.024,2.024,0,0,0-1.379.434,1.24,1.24,0,0,0-.418.946,1.277,1.277,0,0,0,.48,1.023,5.422,5.422,0,0,0,1.52.806,5.157,5.157,0,0,1,1.984,1.27A2.654,2.654,0,0,1,311.843,76.568Z" transform="translate(-276.02 -68.897)"/>
    <path id="path3465" class="cls-1" d="M346.161,77.833h-1.845v3.658q0,1.4.977,1.4a2.977,2.977,0,0,0,.743-.078l.046,1.271a3.792,3.792,0,0,1-1.3.185,2.008,2.008,0,0,1-1.551-.6,2.97,2.97,0,0,1-.558-2.031v-3.8h-1.1V76.575h1.1V75.2l1.644-.5v1.876h1.845v1.258Z" transform="translate(-304.803 -73.509)"/>
    <path id="path3467" class="cls-1" d="M375.927,86.959a4.133,4.133,0,0,1-.992,2.852,3.543,3.543,0,0,1-2.76,1.147,3.369,3.369,0,0,1-2.642-1.1,4.006,4.006,0,0,1-.984-2.775,4.092,4.092,0,0,1,1.015-2.867A3.513,3.513,0,0,1,372.3,83.1a3.441,3.441,0,0,1,2.666,1.1,3.96,3.96,0,0,1,.963,2.758Zm-1.737.054a3.389,3.389,0,0,0-.449-1.788,1.653,1.653,0,0,0-1.5-.9,1.679,1.679,0,0,0-1.535.9,3.454,3.454,0,0,0-.449,1.819,3.384,3.384,0,0,0,.449,1.787,1.711,1.711,0,0,0,3.023-.016A3.4,3.4,0,0,0,374.191,87.013Z" transform="translate(-326.245 -80.187)"/>
    <path id="path3469" class="cls-1" d="M415.426,84.723a2.906,2.906,0,0,0-.528-.046,1.582,1.582,0,0,0-1.365.667,2.508,2.508,0,0,0-.418,1.488v3.953h-1.673l.016-5.161q0-1.3-.063-2.372h1.458l.061,1.441h.046A2.577,2.577,0,0,1,413.8,83.5a2.024,2.024,0,0,1,1.21-.4,2.688,2.688,0,0,1,.418.031v1.6Z" transform="translate(-360.303 -80.184)"/>
    <path id="path3471" class="cls-1" d="M441.6,86.607a3.925,3.925,0,0,1-.061.759h-5.022a2.186,2.186,0,0,0,.729,1.706,2.487,2.487,0,0,0,1.642.527,5.554,5.554,0,0,0,2.032-.356l.262,1.162a6.282,6.282,0,0,1-2.526.466,3.659,3.659,0,0,1-2.753-1.031,3.807,3.807,0,0,1-1-2.767,4.316,4.316,0,0,1,.931-2.837,3.208,3.208,0,0,1,2.634-1.208,2.808,2.808,0,0,1,2.466,1.208,4.074,4.074,0,0,1,.664,2.371Zm-1.6-.434a2.274,2.274,0,0,0-.325-1.287,1.462,1.462,0,0,0-1.334-.7,1.588,1.588,0,0,0-1.332.682,2.5,2.5,0,0,0-.5,1.3H440Z" transform="translate(-378.986 -80.129)"/>
  </g>
  <g id="g3473" transform="translate(31.859 6.827)">
    <g id="g3475" transform="translate(0)">
      <path id="path3477" class="cls-1" d="M96.128,16.09a1.446,1.446,0,0,1-.466,1.17,1.853,1.853,0,0,1-1.226.363,5.682,5.682,0,0,1-.675-.034V14.757a4.982,4.982,0,0,1,.795-.06,1.714,1.714,0,0,1,1.141.329A1.329,1.329,0,0,1,96.128,16.09Zm-.487.013A.938.938,0,0,0,94.6,15.06a1.953,1.953,0,0,0-.372.03v2.153a2.437,2.437,0,0,0,.312.013,1.092,1.092,0,0,0,.818-.295A1.18,1.18,0,0,0,95.642,16.1Z" transform="translate(-93.762 -14.569)"/>
      <path id="path3479" class="cls-1" d="M110,19.575a1.139,1.139,0,0,1-.273.786.976.976,0,0,1-.761.316.928.928,0,0,1-.728-.3,1.105,1.105,0,0,1-.271-.764,1.128,1.128,0,0,1,.28-.79.97.97,0,0,1,.754-.307.949.949,0,0,1,.735.3A1.1,1.1,0,0,1,110,19.575Zm-.479.015a.939.939,0,0,0-.124-.493.456.456,0,0,0-.414-.248.463.463,0,0,0-.423.248.951.951,0,0,0-.124.5.939.939,0,0,0,.124.493.466.466,0,0,0,.419.248.46.46,0,0,0,.414-.253A.933.933,0,0,0,109.519,19.59Z" transform="translate(-105.051 -17.601)"/>
      <path id="path3481" class="cls-1" d="M123.087,18.718l-.65,2.076h-.423l-.269-.9a6.745,6.745,0,0,1-.167-.671h-.008a4.911,4.911,0,0,1-.167.671l-.286.9h-.428l-.611-2.076h.474l.235.987q.085.35.141.666h.008q.052-.26.171-.662l.295-.991h.376l.282.97q.1.355.166.683h.013a6.528,6.528,0,0,1,.141-.683l.252-.97h.453Z" transform="translate(-114.681 -17.765)"/>
      <path id="path3483" class="cls-1" d="M139.354,20.625h-.462V19.436q0-.55-.418-.55a.416.416,0,0,0-.333.151.536.536,0,0,0-.128.356v1.231h-.462V19.142q0-.273-.017-.594h.406l.022.325h.013a.667.667,0,0,1,.239-.251.78.78,0,0,1,.418-.117.662.662,0,0,1,.483.188.914.914,0,0,1,.239.688v1.244Z" transform="translate(-128.555 -17.596)"/>
      <path id="path3485" class="cls-1" d="M150.822,17.1h-.461V14.074h.461Z" transform="translate(-138.751 -14.074)"/>
      <path id="path3487" class="cls-1" d="M157.976,19.575a1.139,1.139,0,0,1-.273.786.977.977,0,0,1-.761.316.926.926,0,0,1-.728-.3,1.1,1.1,0,0,1-.271-.764,1.128,1.128,0,0,1,.28-.79.97.97,0,0,1,.753-.307.95.95,0,0,1,.735.3A1.1,1.1,0,0,1,157.976,19.575Zm-.479.015a.939.939,0,0,0-.124-.493.455.455,0,0,0-.413-.248.462.462,0,0,0-.423.248.951.951,0,0,0-.124.5.939.939,0,0,0,.124.493.466.466,0,0,0,.419.248.46.46,0,0,0,.413-.253A.929.929,0,0,0,157.5,19.59Z" transform="translate(-143.188 -17.601)"/>
      <path id="path3489" class="cls-1" d="M170.139,20.63h-.414l-.034-.239h-.013a.711.711,0,0,1-.606.286.626.626,0,0,1-.474-.188.59.59,0,0,1-.162-.423.645.645,0,0,1,.318-.581,1.652,1.652,0,0,1,.9-.2V19.25q0-.41-.431-.41a.965.965,0,0,0-.541.154l-.094-.3a1.331,1.331,0,0,1,.712-.179q.814,0,.815.859v.764A3.244,3.244,0,0,0,170.139,20.63Zm-.479-.713V19.6q-.764-.013-.764.418a.313.313,0,0,0,.089.244.323.323,0,0,0,.225.081.466.466,0,0,0,.282-.1.394.394,0,0,0,.167-.327Z" transform="translate(-153.117 -17.601)"/>
      <path id="path3491" class="cls-1" d="M181.848,17.1h-.41l-.022-.333H181.4a.69.69,0,0,1-.667.38.781.781,0,0,1-.624-.295,1.148,1.148,0,0,1-.247-.764,1.2,1.2,0,0,1,.269-.816.827.827,0,0,1,.641-.291.622.622,0,0,1,.585.282h.009V14.074h.462v2.469q0,.3.016.559Zm-.478-.875v-.346a.68.68,0,0,0-.013-.145.526.526,0,0,0-.167-.28.454.454,0,0,0-.309-.113.474.474,0,0,0-.406.205.879.879,0,0,0-.148.525.82.82,0,0,0,.142.5.475.475,0,0,0,.4.2.445.445,0,0,0,.365-.171A.569.569,0,0,0,181.37,16.227Z" transform="translate(-162.204 -14.074)"/>
      <path id="path3493" class="cls-1" d="M200.89,19.575a1.139,1.139,0,0,1-.273.786.975.975,0,0,1-.76.316.929.929,0,0,1-.728-.3,1.105,1.105,0,0,1-.271-.764,1.128,1.128,0,0,1,.28-.79.97.97,0,0,1,.754-.307.948.948,0,0,1,.735.3A1.1,1.1,0,0,1,200.89,19.575Zm-.478.015a.939.939,0,0,0-.124-.493.456.456,0,0,0-.414-.248.464.464,0,0,0-.423.248.951.951,0,0,0-.124.5.939.939,0,0,0,.124.493.466.466,0,0,0,.419.248.461.461,0,0,0,.414-.253A.937.937,0,0,0,200.411,19.59Z" transform="translate(-177.299 -17.601)"/>
      <path id="path3495" class="cls-1" d="M213.816,20.625h-.461V19.436q0-.55-.419-.55a.415.415,0,0,0-.333.151.534.534,0,0,0-.128.356v1.231h-.462V19.142q0-.273-.016-.594h.405l.022.325h.013a.674.674,0,0,1,.239-.251.782.782,0,0,1,.419-.117.662.662,0,0,1,.483.188.912.912,0,0,1,.239.688v1.244Z" transform="translate(-187.743 -17.596)"/>
      <path id="path3497" class="cls-1" d="M231.107,17.06H230.6v1.008c0,.256.09.384.269.384a.813.813,0,0,0,.206-.022l.012.35a1.037,1.037,0,0,1-.358.052.552.552,0,0,1-.427-.166.814.814,0,0,1-.154-.56V17.06h-.3v-.346h.3v-.38l.452-.137v.517h.508v.346Z" transform="translate(-201.929 -15.762)"/>
      <path id="path3499" class="cls-1" d="M240.93,17.1h-.462v-1.18q0-.558-.418-.558a.441.441,0,0,0-.44.324.58.58,0,0,0-.022.166V17.1h-.461V14.074h.461v1.251h.009a.7.7,0,0,1,.624-.341.643.643,0,0,1,.475.188.945.945,0,0,1,.235.7Z" transform="translate(-209.309 -14.074)"/>
      <path id="path3501" class="cls-1" d="M253.051,19.478a1.114,1.114,0,0,1-.017.209H251.65a.605.605,0,0,0,.2.47.688.688,0,0,0,.453.145,1.529,1.529,0,0,0,.56-.1l.072.321a1.738,1.738,0,0,1-.7.128,1.006,1.006,0,0,1-.758-.284,1.046,1.046,0,0,1-.275-.762,1.188,1.188,0,0,1,.256-.782.883.883,0,0,1,.726-.333.772.772,0,0,1,.679.333,1.108,1.108,0,0,1,.185.653Zm-.44-.119a.621.621,0,0,0-.089-.354.4.4,0,0,0-.367-.192.438.438,0,0,0-.367.188.7.7,0,0,0-.137.359Z" transform="translate(-218.909 -17.586)"/>
    </g>
  </g>
</svg>
