<svg xmlns="http://www.w3.org/2000/svg" xmlns:xlink="http://www.w3.org/1999/xlink" width="256.95" height="298.77" viewBox="0 0 256.95 298.77">
  <defs>
    <style>
      .cls-1, .cls-2 {
        opacity: 0.09;
      }

      .cls-10, .cls-12, .cls-15, .cls-2, .cls-20, .cls-6 {
        stroke: #707070;
      }

      .cls-3 {
        fill: #1a1a1a;
      }

      .cls-24, .cls-25, .cls-4, .cls-6 {
        fill: #fff;
      }

      .cls-21, .cls-4 {
        font-size: 13px;
      }

      .cls-4, .cls-7 {
        font-family: Montserrat-Regular, Montserrat;
      }

      .cls-5 {
        font-family: Montserrat-SemiBold, Montserrat;
        font-weight: 600;
      }

      .cls-16, .cls-6 {
        stroke-width: 2px;
      }

      .cls-7, .cls-8, .cls-9 {
        fill: #aeaeae;
      }

      .cls-7 {
        font-size: 5px;
      }

      .cls-9 {
        opacity: 0.61;
      }

      .cls-10 {
        fill: #3a3a3a;
      }

      .cls-11 {
        fill: #dcdcdc;
      }

      .cls-12 {
        fill: #414141;
      }

      .cls-13 {
        fill: #eee;
      }

      .cls-14 {
        fill: #c2c2c2;
      }

      .cls-14, .cls-24 {
        font-size: 4px;
      }

      .cls-14, .cls-21, .cls-24 {
        font-family: Montserrat-Medium, Montserrat;
        font-weight: 500;
      }

      .cls-15 {
        fill: #343434;
      }

      .cls-16, .cls-20, .cls-22 {
        fill: none;
      }

      .cls-16 {
        stroke: #fff;
      }

      .cls-17 {
        fill: #717171;
      }

      .cls-18 {
        fill: #ff7b7b;
      }

      .cls-19 {
        fill: #84ff7b;
      }

      .cls-21 {
        fill: #e5dddd;
      }

      .cls-23 {
        fill: #f2f2f2;
      }

      .cls-26 {
        stroke: none;
      }

      .cls-27 {
        filter: url(#INVEST.IT);
      }
    </style>
    <filter id="INVEST.IT" x="87.544" y="20.62" width="81.914" height="45.536" filterUnits="userSpaceOnUse">
      <feOffset dx="1" dy="3" input="SourceAlpha"/>
      <feGaussianBlur stdDeviation="3" result="blur"/>
      <feFlood flood-color="#a1a1a1" flood-opacity="0.161"/>
      <feComposite operator="in" in2="blur"/>
      <feComposite in="SourceGraphic"/>
    </filter>
  </defs>
  <g id="appMobile" transform="translate(-96.813 -250.706)">
    <rect id="Retângulo_71" data-name="Retângulo 71" class="cls-1" width="197.811" height="173.391" transform="translate(96.813 364.064)"/>
    <g id="Retângulo_72" data-name="Retângulo 72" class="cls-2" transform="translate(229.121 419.528)">
      <rect class="cls-26" width="124.642" height="124.642"/>
      <rect class="cls-22" x="0.5" y="0.5" width="123.642" height="123.642"/>
    </g>
    <g id="AppImage" transform="translate(-459.542 -9.302) rotate(11)">
      <g id="Agrupar_24" data-name="Agrupar 24" transform="translate(669.566 141.665)">
        <path id="Retângulo_6" data-name="Retângulo 6" class="cls-3" d="M0,0H125.609a0,0,0,0,1,0,0V.427a36.5,36.5,0,0,1-36.5,36.5H0a0,0,0,0,1,0,0V0A0,0,0,0,1,0,0Z" transform="translate(0.083 0)"/>
        <g class="cls-27" transform="matrix(0.98, -0.19, 0.19, 0.98, -73.82, 7.41)">
          <text id="INVEST.IT-2" data-name="INVEST.IT" class="cls-4" transform="translate(96.12 39.38) rotate(11)"><tspan x="0" y="0">INVEST.</tspan><tspan class="cls-5" y="0">IT</tspan></text>
        </g>
        <g id="Retângulo_7" data-name="Retângulo 7" class="cls-6" transform="translate(4.006 40.098)">
          <rect class="cls-26" width="117.847" height="12.018" rx="6.009"/>
          <rect class="cls-22" x="1" y="1" width="115.847" height="10.018" rx="5.009"/>
        </g>
        <text id="Search_for_stocks..." data-name="Search for stocks..." class="cls-7" transform="translate(13.688 47.435)"><tspan x="0" y="0">Search for stocks...</tspan></text>
        <path id="search-solid" class="cls-8" d="M5.387,4.722,4.323,3.659a.256.256,0,0,0-.181-.075H3.968a2.218,2.218,0,1,0-.384.384v.174a.256.256,0,0,0,.075.181L4.722,5.387a.255.255,0,0,0,.362,0l.3-.3A.257.257,0,0,0,5.387,4.722ZM2.219,3.584A1.365,1.365,0,1,1,3.584,2.219,1.365,1.365,0,0,1,2.219,3.584Z" transform="translate(111.372 43.437)"/>
        <rect id="Retângulo_8" data-name="Retângulo 8" class="cls-9" width="125.191" height="15.691" transform="translate(0.334 247.806)"/>
        <g id="Retângulo_9" data-name="Retângulo 9" class="cls-10" transform="translate(0.334 247.806)">
          <rect class="cls-26" width="31.715" height="15.691"/>
          <rect class="cls-22" x="0.5" y="0.5" width="30.715" height="14.691"/>
        </g>
        <g id="Retângulo_9-2" data-name="Retângulo 9" class="cls-10" transform="translate(31.381 247.806)">
          <rect class="cls-26" width="31.715" height="15.691"/>
          <rect class="cls-22" x="0.5" y="0.5" width="30.715" height="14.691"/>
        </g>
        <g id="Retângulo_9-3" data-name="Retângulo 9" class="cls-10" transform="translate(62.763 247.806)">
          <rect class="cls-26" width="31.715" height="15.691"/>
          <rect class="cls-22" x="0.5" y="0.5" width="30.715" height="14.691"/>
        </g>
        <g id="Retângulo_9-4" data-name="Retângulo 9" class="cls-10" transform="translate(93.81 247.806)">
          <rect class="cls-26" width="31.715" height="15.691"/>
          <rect class="cls-22" x="0.5" y="0.5" width="30.715" height="14.691"/>
        </g>
        <path id="cog-solid" class="cls-11" d="M27.543,13.95l-.809-.468a3.671,3.671,0,0,0,0-1.335l.809-.468a.23.23,0,0,0,.1-.266,4.74,4.74,0,0,0-1.038-1.8.228.228,0,0,0-.281-.044l-.809.468a3.581,3.581,0,0,0-1.154-.668V8.436a.228.228,0,0,0-.178-.223,4.763,4.763,0,0,0-2.073,0,.228.228,0,0,0-.178.223v.936a3.694,3.694,0,0,0-1.154.668l-.807-.468a.225.225,0,0,0-.281.044,4.711,4.711,0,0,0-1.038,1.8.228.228,0,0,0,.1.266l.809.468a3.671,3.671,0,0,0,0,1.335l-.809.468a.23.23,0,0,0-.1.266,4.74,4.74,0,0,0,1.038,1.8.228.228,0,0,0,.281.044l.809-.468a3.581,3.581,0,0,0,1.154.668V17.2a.228.228,0,0,0,.178.223,4.763,4.763,0,0,0,2.073,0,.228.228,0,0,0,.178-.223v-.936a3.694,3.694,0,0,0,1.154-.668l.809.468a.225.225,0,0,0,.281-.044,4.711,4.711,0,0,0,1.038-1.8A.235.235,0,0,0,27.543,13.95Zm-4.393.386a1.522,1.522,0,1,1,1.519-1.522A1.522,1.522,0,0,1,23.15,14.336Z" transform="translate(86.517 242.711)"/>
        <path id="comment-alt-regular" class="cls-11" d="M7.887,0H1.127A1.155,1.155,0,0,0,0,1.179V6.486A1.155,1.155,0,0,0,1.127,7.665h1.69V9.213a.216.216,0,0,0,.211.221.2.2,0,0,0,.125-.044l2.2-1.725H7.887A1.155,1.155,0,0,0,9.014,6.486V1.179A1.155,1.155,0,0,0,7.887,0Zm.282,6.486a.289.289,0,0,1-.282.295H5.07l-.225.177-1.183.929V6.781H1.127a.289.289,0,0,1-.282-.295V1.179A.289.289,0,0,1,1.127.884h6.76a.289.289,0,0,1,.282.295Z" transform="translate(42.732 250.811)"/>
        <path id="list-ul-solid" class="cls-11" d="M1.69,49.089a.99.99,0,0,1-.845,1.089A1.124,1.124,0,0,1,.845,48,.99.99,0,0,1,1.69,49.089Zm-.845,2.54a1.124,1.124,0,0,0,0,2.177,1.124,1.124,0,0,0,0-2.177Zm0,3.629a1.124,1.124,0,0,0,0,2.177,1.124,1.124,0,0,0,0-2.177Zm1.69-5.352h6.2a.33.33,0,0,0,.282-.363v-.907a.33.33,0,0,0-.282-.363h-6.2a.33.33,0,0,0-.282.363v.907A.33.33,0,0,0,2.535,49.905Zm0,3.629h6.2a.33.33,0,0,0,.282-.363v-.907a.33.33,0,0,0-.282-.363h-6.2a.33.33,0,0,0-.282.363v.907A.33.33,0,0,0,2.535,53.534Zm0,3.629h6.2a.33.33,0,0,0,.282-.363v-.907a.33.33,0,0,0-.282-.363h-6.2a.33.33,0,0,0-.282.363V56.8A.33.33,0,0,0,2.535,57.162Z" transform="translate(11.685 202.811)"/>
        <path id="chart-bar-regular" class="cls-11" d="M6.986,71.076H7.38c.113,0,.225-.157.225-.314V65.1c0-.157-.113-.314-.225-.314H6.986c-.113,0-.225.157-.225.314v5.661C6.76,70.919,6.873,71.076,6.986,71.076Zm-3.38,0H4c.113,0,.225-.157.225-.314V65.887c0-.157-.113-.314-.225-.314H3.606c-.113,0-.225.157-.225.314v4.874C3.38,70.919,3.493,71.076,3.606,71.076Zm1.69,0H5.69c.113,0,.225-.157.225-.314v-3.3c0-.157-.113-.314-.225-.314H5.3c-.113,0-.225.157-.225.314v3.3C5.07,70.919,5.183,71.076,5.3,71.076Zm3.437,1.179H.845V64.393C.845,64.176.719,64,.563,64H.282C.126,64,0,64.176,0,64.393v8.255c0,.434.252.786.563.786H8.732c.156,0,.282-.176.282-.393v-.393C9.014,72.431,8.888,72.255,8.732,72.255ZM1.915,71.076H2.31c.113,0,.225-.157.225-.314v-1.73c0-.157-.113-.314-.225-.314H1.915c-.113,0-.225.157-.225.314v1.73c0,.157.113.314.225.314Z" transform="translate(74.113 186.811)"/>
        <g id="Retângulo_51" data-name="Retângulo 51" class="cls-12" transform="translate(0 53.364)">
          <rect class="cls-26" width="125.525" height="61.761"/>
          <rect class="cls-22" x="0.5" y="0.5" width="124.525" height="60.761"/>
        </g>
        <path id="newspaper-solid" class="cls-13" d="M33.913,64H5.406a1.474,1.474,0,0,0-1.474,1.474v.491H1.474A1.474,1.474,0,0,0,0,67.44V84.151a3.44,3.44,0,0,0,3.44,3.44h29a2.949,2.949,0,0,0,2.949-2.949V65.474A1.474,1.474,0,0,0,33.913,64ZM3.44,84.643a.491.491,0,0,1-.491-.492V68.915h.983V84.151A.491.491,0,0,1,3.44,84.643Zm14.5-.983H8.6a.737.737,0,0,1-.737-.737v-.491a.737.737,0,0,1,.737-.737h9.338a.737.737,0,0,1,.737.737v.491A.737.737,0,0,1,17.939,83.66Zm12.779,0H21.38a.737.737,0,0,1-.737-.737v-.491a.737.737,0,0,1,.737-.737h9.338a.737.737,0,0,1,.737.737v.491A.737.737,0,0,1,30.718,83.66Zm-12.779-5.9H8.6a.737.737,0,0,1-.737-.737v-.492A.737.737,0,0,1,8.6,75.8h9.338a.737.737,0,0,1,.737.737v.492A.737.737,0,0,1,17.939,77.762Zm12.779,0H21.38a.737.737,0,0,1-.737-.737v-.492a.737.737,0,0,1,.737-.737h9.338a.737.737,0,0,1,.737.737v.492A.737.737,0,0,1,30.718,77.762Zm0-5.9H8.6a.737.737,0,0,1-.737-.737V68.669a.737.737,0,0,1,.737-.737H30.718a.737.737,0,0,1,.737.737v2.457A.737.737,0,0,1,30.718,71.864Z" transform="translate(8.346 7.72)"/>
        <text id="Actions_prices_falling_more_than_never_before._Is_this_a_crisis_signal_" data-name="Actions prices falling
more than never before.
Is this a crisis signal?" class="cls-14" transform="translate(50.744 80.805)"><tspan x="0" y="0">Actions prices falling</tspan><tspan x="0" y="5">more than never before.</tspan><tspan x="0" y="10">Is this a crisis signal?</tspan></text>
        <g id="Retângulo_56" data-name="Retângulo 56" class="cls-15" transform="translate(0 102.584)">
          <rect class="cls-26" width="125.525" height="145.222"/>
          <rect class="cls-22" x="0.5" y="0.5" width="124.525" height="144.222"/>
        </g>
        <line id="Linha_11" data-name="Linha 11" class="cls-16" y1="24.037" transform="translate(47.239 71.867)"/>
        <rect id="Retângulo_52" data-name="Retângulo 52" class="cls-17" width="3.069" height="96.38" transform="translate(13.782 140.743)"/>
        <path id="Caminho_96" data-name="Caminho 96" class="cls-17" d="M0,0H98.27V3.376H0Z" transform="translate(13.782 233.747)"/>
        <g id="Agrupar_8" data-name="Agrupar 8" transform="translate(56.753 195.726)">
          <rect id="Retângulo_53" data-name="Retângulo 53" class="cls-18" width="4.006" height="22.701" transform="translate(0 10.683)"/>
          <rect id="Retângulo_54" data-name="Retângulo 54" class="cls-18" width="1.002" height="11.351" transform="translate(1.669)"/>
          <rect id="Retângulo_55" data-name="Retângulo 55" class="cls-18" width="0.668" height="7.011" transform="translate(1.669 30.714)"/>
        </g>
        <g id="Agrupar_9" data-name="Agrupar 9" transform="translate(47.74 174.228)">
          <rect id="Retângulo_53-2" data-name="Retângulo 53" class="cls-19" width="4.006" height="22.701" transform="translate(0 10.683)"/>
          <rect id="Retângulo_54-2" data-name="Retângulo 54" class="cls-19" width="1.002" height="11.351" transform="translate(1.669)"/>
          <rect id="Retângulo_55-2" data-name="Retângulo 55" class="cls-19" width="0.668" height="7.011" transform="translate(1.669 30.714)"/>
        </g>
        <g id="Agrupar_10" data-name="Agrupar 10" transform="translate(30.64 216.81)">
          <rect id="Retângulo_53-3" data-name="Retângulo 53" class="cls-18" width="1.505" height="8.528" transform="translate(0 4.013)"/>
          <rect id="Retângulo_54-3" data-name="Retângulo 54" class="cls-18" width="0.376" height="4.264" transform="translate(0.627)"/>
          <rect id="Retângulo_55-3" data-name="Retângulo 55" class="cls-18" width="0.251" height="2.634" transform="translate(0.627 11.538)"/>
        </g>
        <g id="Agrupar_11" data-name="Agrupar 11" transform="translate(21.7 189.049)">
          <rect id="Retângulo_53-4" data-name="Retângulo 53" class="cls-19" width="4.006" height="22.701" transform="translate(0 10.683)"/>
          <rect id="Retângulo_54-4" data-name="Retângulo 54" class="cls-19" width="1.002" height="11.351" transform="translate(1.669)"/>
          <rect id="Retângulo_55-4" data-name="Retângulo 55" class="cls-19" width="0.668" height="7.011" transform="translate(1.669 30.714)"/>
        </g>
        <g id="Agrupar_12" data-name="Agrupar 12" transform="translate(36.983 202.254)">
          <rect id="Retângulo_53-5" data-name="Retângulo 53" class="cls-18" width="2.363" height="13.388" transform="translate(0 6.3)"/>
          <rect id="Retângulo_54-5" data-name="Retângulo 54" class="cls-18" width="0.591" height="6.694" transform="translate(0.984)"/>
          <rect id="Retângulo_55-5" data-name="Retângulo 55" class="cls-18" width="0.394" height="4.134" transform="translate(0.984 18.113)"/>
        </g>
        <g id="Agrupar_13" data-name="Agrupar 13" transform="translate(100.821 180.438)">
          <rect id="Retângulo_53-6" data-name="Retângulo 53" class="cls-19" width="4.006" height="22.701" transform="translate(0 10.683)"/>
          <rect id="Retângulo_54-6" data-name="Retângulo 54" class="cls-19" width="1.002" height="11.351" transform="translate(1.669)"/>
          <rect id="Retângulo_55-6" data-name="Retângulo 55" class="cls-19" width="0.668" height="7.011" transform="translate(1.669 30.714)"/>
        </g>
        <g id="Agrupar_14" data-name="Agrupar 14" transform="translate(91.807 156.84)">
          <rect id="Retângulo_53-7" data-name="Retângulo 53" class="cls-19" width="4.006" height="22.701" transform="translate(0 10.683)"/>
          <rect id="Retângulo_54-7" data-name="Retângulo 54" class="cls-19" width="1.002" height="11.351" transform="translate(1.669)"/>
          <rect id="Retângulo_55-7" data-name="Retângulo 55" class="cls-19" width="0.668" height="7.011" transform="translate(1.669 30.714)"/>
        </g>
        <g id="Agrupar_15" data-name="Agrupar 15" transform="translate(74.707 199.302)">
          <rect id="Retângulo_53-8" data-name="Retângulo 53" class="cls-19" width="1.505" height="8.528" transform="translate(0 4.013)"/>
          <rect id="Retângulo_54-8" data-name="Retângulo 54" class="cls-19" width="0.376" height="4.264" transform="translate(0.627)"/>
          <rect id="Retângulo_55-8" data-name="Retângulo 55" class="cls-19" width="0.251" height="2.634" transform="translate(0.627 11.538)"/>
        </g>
        <g id="Agrupar_16" data-name="Agrupar 16" transform="translate(65.767 174.228)">
          <rect id="Retângulo_53-9" data-name="Retângulo 53" class="cls-19" width="4.006" height="22.701" transform="translate(0 10.683)"/>
          <rect id="Retângulo_54-9" data-name="Retângulo 54" class="cls-19" width="1.002" height="11.351" transform="translate(1.669)"/>
          <rect id="Retângulo_55-9" data-name="Retângulo 55" class="cls-19" width="0.668" height="7.011" transform="translate(1.669 30.714)"/>
        </g>
        <g id="Agrupar_17" data-name="Agrupar 17" transform="translate(81.05 184.785)">
          <rect id="Retângulo_53-10" data-name="Retângulo 53" class="cls-18" width="2.363" height="13.388" transform="translate(0 6.3)"/>
          <rect id="Retângulo_54-10" data-name="Retângulo 54" class="cls-18" width="0.591" height="6.694" transform="translate(0.984)"/>
          <rect id="Retângulo_55-10" data-name="Retângulo 55" class="cls-18" width="0.394" height="4.134" transform="translate(0.984 18.113)"/>
        </g>
        <line id="Linha_12" data-name="Linha 12" class="cls-20" x2="7.678" y2="29.378" transform="translate(23.87 186.955)"/>
        <line id="Linha_13" data-name="Linha 13" class="cls-20" x1="6.677" y2="9.681" transform="translate(31.548 206.394)"/>
        <line id="Linha_14" data-name="Linha 14" class="cls-20" x1="11.685" y2="22.368" transform="translate(38.225 184.822)"/>
        <line id="Linha_15" data-name="Linha 15" class="cls-20" x1="9.014" y1="20.031" transform="translate(49.91 184.938)"/>
        <line id="Linha_16" data-name="Linha 16" class="cls-20" x1="11.017" y2="31.715" transform="translate(58.923 172.207)"/>
        <line id="Linha_17" data-name="Linha 17" class="cls-20" x1="12.352" y1="13.02" transform="translate(69.94 173.073)"/>
        <line id="Linha_18" data-name="Linha 18" class="cls-20" x1="11.685" y2="22.701" transform="translate(82.293 163.595)"/>
        <line id="Linha_19" data-name="Linha 19" class="cls-20" x1="9.014" y1="28.711" transform="translate(93.977 163.326)"/>
        <line id="Linha_20" data-name="Linha 20" class="cls-20" y1="10.015" x2="8.68" transform="translate(15.19 187.911)"/>
        <g id="Agrupar_18" data-name="Agrupar 18" transform="translate(108.426 212.237)">
          <rect id="Retângulo_53-11" data-name="Retângulo 53" class="cls-18" width="2.363" height="13.388" transform="translate(0 6.3)"/>
          <rect id="Retângulo_54-11" data-name="Retângulo 54" class="cls-18" width="0.591" height="6.694" transform="translate(0.984)"/>
          <rect id="Retângulo_55-11" data-name="Retângulo 55" class="cls-18" width="0.394" height="4.134" transform="translate(0.984 18.113)"/>
        </g>
        <line id="Linha_21" data-name="Linha 21" class="cls-20" x1="6.677" y1="23.703" transform="translate(102.991 190.369)"/>
        <text id="New_stock" data-name="New stock" class="cls-21" transform="translate(24.037 140.744)"><tspan x="0" y="0">New stock</tspan></text>
      </g>
      <g id="iphone-x-flat-buttons" transform="translate(663 136)">
        <path id="XMLID_158_" class="cls-22" d="M193.77,74.867H182.762c-2.356,0-3.206-.309-3.36,2.665a5.608,5.608,0,0,1-1.545,3.669,8.377,8.377,0,0,1-3.592,2.24,10.51,10.51,0,0,1-3.09.657H120.343a10.561,10.561,0,0,1-3.09-.7,8.512,8.512,0,0,1-3.592-2.24,5.5,5.5,0,0,1-1.545-3.669c-.155-2.974-1-2.7-3.36-2.7H97.631C90.871,74.867,85,79.657,85,86.378V323.27a12.979,12.979,0,0,0,12.592,12.708H193.77c6.76,0,11.742-5.948,11.742-12.708V86.378C205.512,79.657,200.53,74.867,193.77,74.867Z" transform="translate(-75.344 -67.528)"/>
        <path id="XMLID_156_" d="M197.508,118.96V75.545C197.508,64.42,188.856,56,177.731,56H81.63c-11.124,0-20.472,8.459-20.472,19.545V92.308H60v10.429h1.159v9.656H60v19.7h1.159v5.794H60v19.7h1.159V312.63c0,11.124,9.386,20.7,20.472,20.7h96.1c11.124,0,19.776-9.579,19.776-20.7V151.019h1.545V118.96ZM145.865,64.691a1.7,1.7,0,1,1-1.7-1.7A1.715,1.715,0,0,1,145.865,64.691ZM122.883,64.5h15.064a.982.982,0,1,1,0,1.931H122.883a.982.982,0,1,1,0-1.931Zm67.286,247.244c0,6.759-4.983,12.708-11.742,12.708H82.248a12.952,12.952,0,0,1-12.592-12.708V74.849c0-6.721,5.871-11.51,12.592-11.51H93.373c2.356,0,3.206-.348,3.36,2.627a5.8,5.8,0,0,0,1.545,3.708,8.445,8.445,0,0,0,3.592,2.279,10.51,10.51,0,0,0,3.09.657h50.793a10.617,10.617,0,0,0,3.09-.734,8.449,8.449,0,0,0,3.592-2.2,5.327,5.327,0,0,0,1.545-3.631c.154-2.974,1-2.742,3.36-2.742h11.008c6.76,0,11.742,4.79,11.742,11.51V311.741Z" transform="translate(-60 -56)"/>
        <path id="XMLID_159_" class="cls-23" d="M236.023,78H220.959a.982.982,0,1,0,0,1.931h15.064a1.036,1.036,0,0,0,1.159-.966A1.058,1.058,0,0,0,236.023,78Z" transform="translate(-158.076 -69.502)"/>
        <circle id="XMLID_51_" class="cls-23" cx="1.7" cy="1.7" r="1.7" transform="translate(82.466 6.991)"/>
      </g>
      <text id="_10:00" data-name="10:00" class="cls-24" transform="translate(683.085 149.656)"><tspan x="0" y="0">10:00</tspan></text>
      <path id="signal-solid" class="cls-25" d="M25.8,3.042h-.449a.16.16,0,0,0-.15.169V5.239a.16.16,0,0,0,.15.169H25.8a.16.16,0,0,0,.15-.169V3.211A.16.16,0,0,0,25.8,3.042ZM24.6,4.056H24.15a.16.16,0,0,0-.15.169V5.239a.16.16,0,0,0,.15.169H24.6a.16.16,0,0,0,.15-.169V4.225A.16.16,0,0,0,24.6,4.056Zm2.4-2.028h-.449a.16.16,0,0,0-.15.169V5.239a.16.16,0,0,0,.15.169h.449a.16.16,0,0,0,.15-.169V2.2A.16.16,0,0,0,26.994,2.028Zm1.2-1.014h-.449a.16.16,0,0,0-.15.169V5.239a.16.16,0,0,0,.15.169h.449a.16.16,0,0,0,.15-.169V1.183A.16.16,0,0,0,28.192,1.014ZM29.389,0H28.94a.16.16,0,0,0-.15.169v5.07a.16.16,0,0,0,.15.169h.449a.16.16,0,0,0,.15-.169V.169A.16.16,0,0,0,29.389,0Z" transform="translate(744.007 145.656)"/>
      <path id="wifi-solid" class="cls-25" d="M5.365,33.347A3.781,3.781,0,0,0,3.51,32.083,3.256,3.256,0,0,0,.044,33.347a.219.219,0,0,0,0,.257l.289.38a.114.114,0,0,0,.189,0,2.691,2.691,0,0,1,4.37,0,.115.115,0,0,0,.189,0l.289-.38a.22.22,0,0,0,0-.257ZM2.7,35.55a.743.743,0,0,0,0,1.431.743.743,0,0,0,0-1.431Zm1.712-.934a2.144,2.144,0,0,0-3.425,0,.218.218,0,0,0,0,.259l.291.38a.115.115,0,0,0,.186.009,1.569,1.569,0,0,1,2.48,0,.115.115,0,0,0,.186-.009l.291-.38A.218.218,0,0,0,4.417,34.616Z" transform="translate(775.4 114.083)"/>
      <path id="battery-three-quarters-solid" class="cls-25" d="M6.591,100.2H2.1v2.163H6.591Z" transform="translate(780.679 47.851)"/>
      <rect id="Retângulo_57" data-name="Retângulo 57" class="cls-25" width="0.773" height="0.773" transform="translate(786.989 148.747)"/>
    </g>
  </g>
</svg>
