<svg id="gstore" xmlns="http://www.w3.org/2000/svg" xmlns:xlink="http://www.w3.org/1999/xlink" width="104.765" height="34.505" viewBox="0 0 104.765 34.505">
  <defs>
    <style>
      .cls-1 {
        clip-path: url(#clip-path);
      }

      .cls-2 {
        fill: url(#linear-gradient);
      }

      .cls-3 {
        fill: url(#linear-gradient-2);
      }

      .cls-4 {
        fill: url(#linear-gradient-3);
      }

      .cls-5 {
        fill: url(#linear-gradient-4);
      }

      .cls-6 {
        fill: #f9f9f9;
      }

      .cls-7 {
        fill: #f9f9fa;
      }
    </style>
    <clipPath id="clip-path">
      <path id="Caminho_100" data-name="Caminho 100" d="M53.312,42.155l-4.756-2.746-9.174-5.3c-.509-.294-1.017-.116-1.017.5V56.192c0,.461.363.659.805.4l9.386-5.42,4.756-2.746,4.572-2.639c.536-.31.485-.735.032-.979S53.312,42.155,53.312,42.155Z" transform="translate(-38.364 -33.973)"/>
    </clipPath>
    <linearGradient id="linear-gradient" x1="0.5" x2="0.5" y2="1" gradientUnits="objectBoundingBox">
      <stop offset="0" stop-color="#257cb0"/>
      <stop offset="0.286" stop-color="#4a93b5"/>
      <stop offset="0.767" stop-color="#78bcbb"/>
      <stop offset="1" stop-color="#89cfbd"/>
    </linearGradient>
    <linearGradient id="linear-gradient-2" y1="0.5" x2="1" y2="0.5" gradientUnits="objectBoundingBox">
      <stop offset="0" stop-color="#52c1ad"/>
      <stop offset="1" stop-color="#dee89a"/>
    </linearGradient>
    <linearGradient id="linear-gradient-3" x1="0.5" x2="0.5" y2="1" gradientUnits="objectBoundingBox">
      <stop offset="0" stop-color="#ec413d"/>
      <stop offset="0.167" stop-color="#da4452"/>
      <stop offset="0.575" stop-color="#b0487a"/>
      <stop offset="0.862" stop-color="#954a92"/>
      <stop offset="1" stop-color="#8a4a9d"/>
    </linearGradient>
    <linearGradient id="linear-gradient-4" x1="0.5" x2="0.5" y2="1" gradientUnits="objectBoundingBox">
      <stop offset="0" stop-color="#f58879"/>
      <stop offset="0.119" stop-color="#f69079"/>
      <stop offset="0.713" stop-color="#fcb877"/>
      <stop offset="1" stop-color="#fec874"/>
    </linearGradient>
  </defs>
  <path id="Caminho_98" data-name="Caminho 98" d="M104.765,29.841a4.647,4.647,0,0,1-4.63,4.663H4.631A4.648,4.648,0,0,1,0,29.841V4.663A4.648,4.648,0,0,1,4.631,0h95.5a4.647,4.647,0,0,1,4.63,4.663V29.841Z"/>
  <g id="PLAY_2_" transform="translate(7.912 7.006)">
    <g id="Agrupar_25" data-name="Agrupar 25" class="cls-1">
      <path id="Caminho_99" data-name="Caminho 99" class="cls-2" d="M38.365,32.211V55.578L50.148,43.894Z" transform="translate(-38.365 -32.574)"/>
    </g>
    <g id="Agrupar_26" data-name="Agrupar 26" class="cls-1">
      <path id="Caminho_101" data-name="Caminho 101" class="cls-3" d="M53.312,40.429l-4.756-2.746L38.365,31.8v.085L50.148,43.567Z" transform="translate(-38.365 -32.247)"/>
    </g>
    <g id="Agrupar_27" data-name="Agrupar 27" class="cls-1">
      <path id="Caminho_103" data-name="Caminho 103" class="cls-4" d="M38.365,100.546v.085l10.191-5.884L53.312,92l-3.164-3.138Z" transform="translate(-38.365 -77.543)"/>
    </g>
    <g id="Agrupar_28" data-name="Agrupar 28" class="cls-1">
      <path id="Caminho_105" data-name="Caminho 105" class="cls-5" d="M98.664,73.646,95.5,76.784l3.164,3.138,5.436-3.138Z" transform="translate(-83.716 -65.464)"/>
    </g>
  </g>
  <path id="Caminho_107" data-name="Caminho 107" class="cls-6" d="M385.889,83.9a2.941,2.941,0,0,1-1.212-.245,2.284,2.284,0,0,1-.921-.753h-.074a9.133,9.133,0,0,1,.074,1.128v2.8h-1.029V76.982h.837l.142.93h.049a2.392,2.392,0,0,1,.924-.806,2.806,2.806,0,0,1,1.209-.248,2.512,2.512,0,0,1,2.086.924,4.921,4.921,0,0,1-.012,5.193A2.516,2.516,0,0,1,385.889,83.9Zm-.149-6.169a1.824,1.824,0,0,0-1.507.577,2.969,2.969,0,0,0-.478,1.835v.229a3.4,3.4,0,0,0,.478,2.05,1.816,1.816,0,0,0,1.531.617,1.593,1.593,0,0,0,1.38-.713,3.383,3.383,0,0,0,.5-1.966,3.257,3.257,0,0,0-.5-1.95A1.642,1.642,0,0,0,385.74,77.732Z" transform="translate(-304.366 -61.008)"/>
  <path id="Caminho_108" data-name="Caminho 108" class="cls-6" d="M419.332,73.276H418.3V63.629h1.029Z" transform="translate(-332.754 -50.507)"/>
  <path id="Caminho_109" data-name="Caminho 109" class="cls-6" d="M433.944,83.824l-.2-.967h-.049a2.851,2.851,0,0,1-1.014.865,3.084,3.084,0,0,1-1.261.226,2.271,2.271,0,0,1-1.584-.521,1.9,1.9,0,0,1-.574-1.482q0-2.058,3.292-2.158l1.154-.037v-.422a1.721,1.721,0,0,0-.344-1.181,1.414,1.414,0,0,0-1.1-.382,4.484,4.484,0,0,0-1.922.521l-.316-.787a4.836,4.836,0,0,1,1.1-.428,4.765,4.765,0,0,1,1.2-.155,2.589,2.589,0,0,1,1.8.539,2.253,2.253,0,0,1,.586,1.73v4.638h-.763Zm-2.325-.725a2.09,2.09,0,0,0,1.51-.527,1.951,1.951,0,0,0,.549-1.476v-.614l-1.03.043a3.744,3.744,0,0,0-1.77.382,1.15,1.15,0,0,0-.542,1.051,1.058,1.058,0,0,0,.338.849A1.4,1.4,0,0,0,431.619,83.1Z" transform="translate(-341.449 -61.054)"/>
  <path id="Caminho_110" data-name="Caminho 110" class="cls-6" d="M458.581,77.459h1.1l1.488,3.875a14.813,14.813,0,0,1,.608,1.916h.049q.081-.317.338-1.083t1.683-4.709h1.1L462.035,85.2a3.861,3.861,0,0,1-1.014,1.628,2.156,2.156,0,0,1-1.422.48,4.154,4.154,0,0,1-.93-.105v-.825a3.6,3.6,0,0,0,.763.074,1.572,1.572,0,0,0,1.513-1.191l.378-.967Z" transform="translate(-364.725 -61.485)"/>
  <path id="Caminho_111" data-name="Caminho 111" class="cls-6" d="M285.2,78.552a2.315,2.315,0,0,1-.185,3.937,1,1,0,0,0-.4.7.779.779,0,0,0,.37.611l.512.4a2.475,2.475,0,0,1,1.193,1.991c0,1.336-1.293,2.686-3.738,2.686-2.061,0-3.056-.98-3.056-2.033A2.045,2.045,0,0,1,281,85.1a6.127,6.127,0,0,1,2.715-.654,1.487,1.487,0,0,1-.426-.966,1.285,1.285,0,0,1,.142-.555c-.157.014-.313.029-.455.029a2.247,2.247,0,0,1-2.359-2.231,2.556,2.556,0,0,1,.909-1.9,3.876,3.876,0,0,1,2.545-.782h2.927l-.91.512H285.2Zm-1.01,6.311a2.205,2.205,0,0,0-.326-.015,5.686,5.686,0,0,0-1.493.229,1.6,1.6,0,0,0-1.223,1.464c0,1.009.981,1.735,2.5,1.735,1.364,0,2.089-.655,2.089-1.536C285.744,86.013,285.275,85.631,284.194,84.864Zm.412-2.7a1.437,1.437,0,0,0,.354-1.038c0-1.023-.611-2.615-1.79-2.615a1.328,1.328,0,0,0-1,.469,1.642,1.642,0,0,0-.313,1.052c0,.952.554,2.53,1.777,2.53A1.455,1.455,0,0,0,284.607,82.163Z" transform="translate(-222.599 -61.947)"/>
  <path id="Caminho_112" data-name="Caminho 112" class="cls-6" d="M248.894,83.858a3.349,3.349,0,0,1-3.462-3.349,3.516,3.516,0,0,1,3.676-3.448A3.317,3.317,0,0,1,252.5,80.41,3.467,3.467,0,0,1,248.894,83.858Zm1.774-1.149a2.567,2.567,0,0,0,.426-1.576c0-1.249-.6-3.633-2.356-3.633a1.975,1.975,0,0,0-1.277.483,2.147,2.147,0,0,0-.653,1.732c0,1.4.7,3.716,2.413,3.716A1.813,1.813,0,0,0,250.668,82.709Z" transform="translate(-195.185 -61.169)"/>
  <path id="Caminho_113" data-name="Caminho 113" class="cls-6" d="M211.6,83.858a3.349,3.349,0,0,1-3.463-3.349,3.517,3.517,0,0,1,3.676-3.448A3.317,3.317,0,0,1,215.2,80.41,3.467,3.467,0,0,1,211.6,83.858Zm1.774-1.149a2.571,2.571,0,0,0,.426-1.576c0-1.249-.6-3.633-2.356-3.633a1.975,1.975,0,0,0-1.277.483,2.146,2.146,0,0,0-.653,1.732c0,1.4.7,3.716,2.413,3.716A1.814,1.814,0,0,0,213.371,82.709Z" transform="translate(-165.523 -61.169)"/>
  <path id="Caminho_114" data-name="Caminho 114" class="cls-6" d="M165.044,71.272l-2.04.471a15.122,15.122,0,0,1-2.354.242,5.069,5.069,0,0,1-5.436-5.165,5.393,5.393,0,0,1,5.764-5.335,8.221,8.221,0,0,1,2.182.3,5.567,5.567,0,0,1,1.883.885L163.859,63.8l-.5.114.357-.571A4.078,4.078,0,0,0,160.663,62a3.941,3.941,0,0,0-3.952,4.209,5.045,5.045,0,0,0,5.05,5.207,4.249,4.249,0,0,0,1.812-.357v-2.3l-2.154.114,1.141-.614h3.025l-.371.357a.333.333,0,0,0-.143.228c-.015.129-.028.543-.028.685v1.741Z" transform="translate(-123.446 -48.805)"/>
  <path id="Caminho_115" data-name="Caminho 115" class="cls-6" d="M315.81,69.639c-.471-.043-.57-.128-.57-.685V60.879c0-.031,0-.062.008-.092.058-.5.2-.585.643-.842H313.85l-1.07.514h1.091v8.809c0,.285-.056.328-.385.756h2.525l.528-.313C316.3,69.681,316.053,69.667,315.81,69.639Z" transform="translate(-248.73 -47.583)"/>
  <path id="Caminho_116" data-name="Caminho 116" class="cls-6" d="M335.72,83.373c-.155.085-.311.185-.466.255a3.3,3.3,0,0,1-1.376.269,3.028,3.028,0,0,1-1.885-.553,3.667,3.667,0,0,1-1.444-2.99,3.211,3.211,0,0,1,3.244-3.272,2.753,2.753,0,0,1,1.46.4,2.346,2.346,0,0,1,.991,1.4l-3.329,1.346-1.091.085a3.147,3.147,0,0,0,2.919,2.847,3.661,3.661,0,0,0,1.728-.495Zm-1.331-4.223c.269-.1.41-.184.41-.382a1.406,1.406,0,0,0-1.4-1.218,1.745,1.745,0,0,0-1.629,1.969c0,.241.028.5.043.752Z" transform="translate(-262.871 -61.185)"/>
  <path id="Caminho_117" data-name="Caminho 117" class="cls-6" d="M360.627,77.179v.935h-.114v-.935H360.2v-.1h.732v.1Z" transform="translate(-286.428 -61.185)"/>
  <path id="Caminho_118" data-name="Caminho 118" class="cls-6" d="M365.436,78.114V77.17h-.005l-.288.944h-.089l-.29-.944h0v.944h-.1V77.082h.177l.263.834h0l.259-.834h.179v1.032Z" transform="translate(-289.97 -61.185)"/>
  <path id="Caminho_119" data-name="Caminho 119" class="cls-7" d="M158.141,36.913h-.709a4.683,4.683,0,0,0-.2-.829h-1.024a4.282,4.282,0,0,0-.208.829h-.667q0-.086.517-1.418a11.128,11.128,0,0,0,.517-1.467h.837a12.209,12.209,0,0,0,.469,1.445A12.69,12.69,0,0,1,158.141,36.913Zm-1.024-1.252a12.459,12.459,0,0,1-.379-1.236H156.7q0,.086-.392,1.236Z" transform="translate(-123.522 -27.011)"/>
  <path id="Caminho_120" data-name="Caminho 120" class="cls-7" d="M173.657,36.914h-.547a5.408,5.408,0,0,0-.609-.959,5.283,5.283,0,0,1-.727-1.252h-.035a7.8,7.8,0,0,1,.055.877q0,.547.031,1.334h-.545q.033-.687.033-1.509t-.033-1.376h.658a4.162,4.162,0,0,0,.547.937,5.513,5.513,0,0,1,.669,1.181h.033a8.358,8.358,0,0,1-.053-.886q0-.6-.031-1.232h.554q-.031.549-.031,1.376T173.657,36.914Z" transform="translate(-136.203 -27.012)"/>
  <path id="Caminho_121" data-name="Caminho 121" class="cls-7" d="M189,35.32a1.635,1.635,0,0,1-.4,1.1,1.409,1.409,0,0,1-1.13.47q-.328,0-.9-.027.029-.669.029-1.509,0-.806-.029-1.376h.388q.1,0,.284-.007t.246-.007a1.494,1.494,0,0,1,1.16.4A1.378,1.378,0,0,1,189,35.32Zm-.6.1a1.068,1.068,0,0,0-.248-.717.941.941,0,0,0-.758-.291,2.31,2.31,0,0,0-.262.02q.022.443.022.926,0,.53.022,1.05a1.466,1.466,0,0,0,.288.029.837.837,0,0,0,.706-.3A1.142,1.142,0,0,0,188.39,35.415Z" transform="translate(-148.352 -26.96)"/>
  <path id="Caminho_122" data-name="Caminho 122" class="cls-7" d="M203.746,36.863h-.656a4.349,4.349,0,0,0-.394-.968.516.516,0,0,0-.443-.184l-.246,0q0,.57.02,1.15h-.616q.029-.669.029-1.509,0-.806-.029-1.376h.383q.067,0,.278-.007t.391-.007q1.017,0,1.017.7a.78.78,0,0,1-.58.769v.033a.692.692,0,0,1,.392.349A7.725,7.725,0,0,1,203.746,36.863Zm-.831-2.038q0-.441-.567-.441a1.947,1.947,0,0,0-.368.031q.024.343.024.9c.081,0,.15,0,.206,0Q202.915,35.314,202.915,34.824Z" transform="translate(-160.163 -26.96)"/>
  <path id="Caminho_123" data-name="Caminho 123" class="cls-7" d="M217.275,35.162a1.591,1.591,0,0,1-.417,1.128,1.352,1.352,0,0,1-1.03.448,1.3,1.3,0,0,1-.979-.411,1.447,1.447,0,0,1-.394-1.044,1.59,1.59,0,0,1,.417-1.128,1.351,1.351,0,0,1,1.03-.448,1.3,1.3,0,0,1,.979.41A1.446,1.446,0,0,1,217.275,35.162Zm-.611.064a1.144,1.144,0,0,0-.237-.751.73.73,0,0,0-.585-.288.676.676,0,0,0-.549.29,1.158,1.158,0,0,0-.226.733,1.141,1.141,0,0,0,.238.75.729.729,0,0,0,.584.289.675.675,0,0,0,.549-.291A1.159,1.159,0,0,0,216.664,35.227Z" transform="translate(-170.537 -26.756)"/>
  <path id="Caminho_124" data-name="Caminho 124" class="cls-7" d="M231.791,36.913h-.627q.029-.687.029-1.509t-.029-1.376h.627q-.029.558-.029,1.376Q231.762,36.24,231.791,36.913Z" transform="translate(-183.817 -27.011)"/>
  <path id="Caminho_125" data-name="Caminho 125" class="cls-7" d="M240.394,35.32a1.635,1.635,0,0,1-.4,1.1,1.409,1.409,0,0,1-1.13.47q-.328,0-.9-.027.029-.669.029-1.509,0-.806-.029-1.376h.388q.1,0,.284-.007t.246-.007a1.494,1.494,0,0,1,1.16.4A1.378,1.378,0,0,1,240.394,35.32Zm-.6.1a1.068,1.068,0,0,0-.248-.717.941.941,0,0,0-.758-.291,2.31,2.31,0,0,0-.262.02q.022.443.022.926,0,.53.022,1.05a1.466,1.466,0,0,0,.288.029.837.837,0,0,0,.706-.3A1.142,1.142,0,0,0,239.789,35.415Z" transform="translate(-189.225 -26.96)"/>
  <path id="Caminho_126" data-name="Caminho 126" class="cls-7" d="M259.617,36.913h-.709a4.672,4.672,0,0,0-.2-.829h-1.024a4.282,4.282,0,0,0-.208.829h-.667q0-.086.517-1.418a11.129,11.129,0,0,0,.517-1.467h.837a12.249,12.249,0,0,0,.469,1.445A12.744,12.744,0,0,1,259.617,36.913Zm-1.023-1.252a12.491,12.491,0,0,1-.379-1.236h-.035q0,.086-.392,1.236Z" transform="translate(-204.216 -27.011)"/>
  <path id="Caminho_127" data-name="Caminho 127" class="cls-7" d="M274.859,34.733a.864.864,0,0,1-.393.782,1.75,1.75,0,0,1-.965.253c-.07,0-.119,0-.148,0q0,.417.024,1.1h-.623q.029-.64.029-1.509,0-.8-.029-1.376h.385q.082,0,.315-.007t.4-.007a1.268,1.268,0,0,1,.711.191A.644.644,0,0,1,274.859,34.733Zm-.571.122q0-.474-.629-.474a1.788,1.788,0,0,0-.332.033q.024.419.024.948c.037,0,.08,0,.128,0Q274.287,35.367,274.287,34.855Z" transform="translate(-216.894 -26.96)"/>
  <path id="Caminho_128" data-name="Caminho 128" class="cls-7" d="M287.743,34.733a.864.864,0,0,1-.393.782,1.75,1.75,0,0,1-.965.253c-.07,0-.119,0-.148,0q0,.417.024,1.1h-.623q.029-.64.029-1.509,0-.8-.029-1.376h.385q.082,0,.315-.007t.4-.007a1.268,1.268,0,0,1,.711.191A.644.644,0,0,1,287.743,34.733Zm-.571.122q0-.474-.629-.474a1.788,1.788,0,0,0-.332.033q.024.419.024.948c.037,0,.08,0,.128,0Q287.171,35.367,287.171,34.855Z" transform="translate(-227.14 -26.96)"/>
  <path id="Caminho_129" data-name="Caminho 129" class="cls-7" d="M306.054,35.162a1.591,1.591,0,0,1-.417,1.128,1.351,1.351,0,0,1-1.03.448,1.3,1.3,0,0,1-.979-.411,1.448,1.448,0,0,1-.394-1.044,1.59,1.59,0,0,1,.417-1.128,1.351,1.351,0,0,1,1.03-.448,1.3,1.3,0,0,1,.979.41A1.447,1.447,0,0,1,306.054,35.162Zm-.611.064a1.144,1.144,0,0,0-.237-.751.73.73,0,0,0-.585-.288.676.676,0,0,0-.549.29,1.158,1.158,0,0,0-.226.733,1.141,1.141,0,0,0,.238.75.729.729,0,0,0,.584.289.675.675,0,0,0,.549-.291A1.158,1.158,0,0,0,305.443,35.227Z" transform="translate(-241.135 -26.756)"/>
  <path id="Caminho_130" data-name="Caminho 130" class="cls-7" d="M322.32,36.914h-.547a5.393,5.393,0,0,0-.609-.959,5.282,5.282,0,0,1-.727-1.252H320.4a7.8,7.8,0,0,1,.056.877q0,.547.031,1.334h-.545q.033-.687.033-1.509t-.033-1.376h.658a4.172,4.172,0,0,0,.547.937,5.5,5.5,0,0,1,.669,1.181h.033a8.361,8.361,0,0,1-.053-.886q0-.6-.031-1.232h.554q-.031.549-.031,1.376T322.32,36.914Z" transform="translate(-254.42 -27.012)"/>
</svg>
